<svg xmlns="http://www.w3.org/2000/svg" width="30.003" height="34.635" viewBox="0 0 30.003 34.635">
  <g id="Group_46" data-name="Group 46" transform="translate(0)">
    <path id="Path_2" data-name="Path 2" d="M175.866,46.372l-15-8.652L145.87,46.386l.008,17.318,15,8.652,14.993-8.666Zm-1,16.678-.051.088L161.384,70.9V55.329l13.474-7.788Zm-14.5-23.537h1.008v-.336l12.988,7.491L160.88,54.455l-13.493-7.781,12.974-7.5ZM146.886,63.089l-.007-15.544,13.5,7.784V70.9l-13.461-7.764Z" transform="translate(-145.87 -37.72)" fill="#ffda38"/>
    <path id="Path_3" data-name="Path 3" d="M314.59,285.241l1.034-.6.5.873-1.034.6Z" transform="translate(-302.44 -266.861)" fill="#ffda38"/>
    <path id="Path_4" data-name="Path 4" d="M171.527,369.069l-.5-.873,1.034-.6.5.873Z" transform="translate(-169.211 -343.842)" fill="#ffda38"/>
    <path id="Path_5" data-name="Path 5" d="M228.957,335.869l-.5-.873,1.034-.6.5.873Z" transform="translate(-222.505 -313.033)" fill="#ffda38"/>
    <path id="Path_6" data-name="Path 6" d="M200.237,352.469l-.5-.873,1.034-.6.5.873Z" transform="translate(-195.854 -328.438)" fill="#ffda38"/>
    <path id="Path_7" data-name="Path 7" d="M257.667,319.279l-.5-.873,1.034-.6.5.873Z" transform="translate(-249.148 -297.638)" fill="#ffda38"/>
    <path id="Path_8" data-name="Path 8" d="M286.387,302.679l-.5-.873,1.034-.6.5.873Z" transform="translate(-275.799 -282.233)" fill="#ffda38"/>
    <path id="Path_9" data-name="Path 9" d="M401.468,301.2l1.034.6-.5.873-1.034-.6Z" transform="translate(-382.593 -282.225)" fill="#ffda38"/>
    <path id="Path_10" data-name="Path 10" d="M430.194,317.73l1.035.6-.5.874-1.035-.6Z" transform="translate(-409.25 -297.565)" fill="#ffda38"/>
    <path id="Path_11" data-name="Path 11" d="M487.658,350.92l1.034.6-.5.873-1.034-.6Z" transform="translate(-462.576 -328.365)" fill="#ffda38"/>
    <path id="Path_12" data-name="Path 12" d="M516.4,367.49l1.034.6-.5.873-1.034-.6Z" transform="translate(-489.247 -343.742)" fill="#ffda38"/>
    <path id="Path_13" data-name="Path 13" d="M458.934,334.32l1.034.6-.5.874-1.034-.6Z" transform="translate(-435.922 -312.96)" fill="#ffda38"/>
    <path id="Path_14" data-name="Path 14" d="M373.773,285.239l-.5.874-1.035-.6.5-.874Z" transform="translate(-355.933 -266.861)" fill="#ffda38"/>
    <path id="Path_15" data-name="Path 15" d="M347.12,79.4h1.008v1.21H347.12Z" transform="translate(-332.627 -76.397)" fill="#ffda38"/>
    <path id="Path_16" data-name="Path 16" d="M347.18,146.6h1.008v1.21H347.18Z" transform="translate(-332.683 -138.759)" fill="#ffda38"/>
    <path id="Path_17" data-name="Path 17" d="M347.16,113h1.008v1.21H347.16Z" transform="translate(-332.664 -107.579)" fill="#ffda38"/>
    <path id="Path_18" data-name="Path 18" d="M347.21,180.2h1.008v1.21H347.21Z" transform="translate(-332.711 -169.939)" fill="#ffda38"/>
    <path id="Path_19" data-name="Path 19" d="M347.25,213.8h1.008v1.21H347.25Z" transform="translate(-332.748 -201.12)" fill="#ffda38"/>
    <path id="Path_20" data-name="Path 20" d="M347.28,247.4h1.008v1.21H347.28Z" transform="translate(-332.776 -232.3)" fill="#ffda38"/>
  </g>
</svg>
