<svg xmlns="http://www.w3.org/2000/svg" width="36" height="36" viewBox="0 0 36 36"><g transform="translate(-912 -218)"><circle cx="18" cy="18" r="18" transform="translate(912 218)" fill="#2a2a2a"/><g transform="translate(-3.256 -3.56)"><g transform="translate(920.912 224.939)"><path d="M176.633,31.441,165.909,23.6a1.4,1.4,0,0,0-1.646,0L153.54,31.441,165.087,39.9Z" transform="translate(-152.742 -23.332)" fill="#ffda38"/><path d="M151.618,192.611,139.961,184.1a1.128,1.128,0,0,0,0,.147v10.8h0a1.432,1.432,0,0,0,.466.91v.067l10.971,8.029.137.067Z" transform="translate(-139.959 -174.88)" fill="#ffda38"/><path d="M373.326,184.1l-11.656,8.511V204.12l.137-.067,10.971-8.029v-.067a1.349,1.349,0,0,0,.192-.214,1.426,1.426,0,0,0,.274-.709V184.248a1.143,1.143,0,0,0,.082-.147Z" transform="translate(-348.639 -174.88)" fill="#ffda38"/></g></g></g></svg>