<svg xmlns="http://www.w3.org/2000/svg" width="36" height="36" viewBox="0 0 36 36"><g transform="translate(-968 -261)"><circle cx="18" cy="18" r="18" transform="translate(968 261)" fill="#2a2a2a"/><g transform="translate(-7076.076 1256.939)"><path d="M535.182,462,532,465.182l3.873.692Z" transform="translate(7537.28 -1432.752)" fill="#ffda38"/><path d="M201.345,82.675l-1.272,1.272L185.108,68.982l1.272-1.272Z" transform="translate(7870.461 -1054.046)" fill="#ffda38"/><path d="M136.67,116.41l1.272-1.272L152.907,130.1l-1.272,1.272Z" transform="translate(7916.985 -1099.599)" fill="#ffda38"/><path d="M72.308,5.448,75.49,2.266,73.784.606a1.086,1.086,0,0,0-1.522,0L70.6,2.266a1.086,1.086,0,0,0,0,1.522Z" transform="translate(7980.741 -989.295)" fill="#ffda38"/><path d="M75.234,301.488a3.368,3.368,0,0,1-2.167.968,3.734,3.734,0,0,0-2.444,1.107,3.866,3.866,0,0,0-.922,3.965l2.213-2.213,2.4,2.352L72.1,309.88a3.773,3.773,0,0,0,3.965-.922,3.734,3.734,0,0,0,1.107-2.444,3.253,3.253,0,0,1,.968-2.121l1.66-1.66-2.905-2.9Z" transform="translate(7981.504 -1276.99)" fill="#ffda38"/><path d="M374.4,9.045a3.357,3.357,0,0,1,2.121-.968,3.639,3.639,0,0,0,2.444-1.107A3.866,3.866,0,0,0,379.884,3l-2.213,2.213-2.4-2.352L377.486.653a3.83,3.83,0,0,0-5.072,3.412,3.357,3.357,0,0,1-.968,2.121L369.832,7.8l2.9,2.9Z" transform="translate(7693.038 -989.434)" fill="#ffda38"/></g></g></svg>