<svg xmlns="http://www.w3.org/2000/svg" width="36" height="36" viewBox="0 0 36 36"><g transform="translate(-968 -306)"><circle cx="18" cy="18" r="18" transform="translate(968 306)" fill="#2a2a2a"/><path d="M108.136,32.094l.577.577-1.061,1.061a.381.381,0,0,0,.539.539l1.056-1.061.789.789-.632.631a.381.381,0,1,0,.539.539l.632-.631.833.833-1.078,1.066a.381.381,0,0,0,.534.545l.005-.006,1.056-1.061.789.789-.632.632a.381.381,0,1,0,.539.539l.632-.632.833.833-1.061,1.061a.381.381,0,1,0,.539.539l1.056-1.061.789.789-.632.631a.381.381,0,1,0,.539.539l.632-.631.789.794L115.674,41.8a.381.381,0,0,0,.539.539l1.056-1.061.833.833-.62.642a.381.381,0,0,0,.539.539l.631-.631.79.794-1.062,1.061a.381.381,0,0,0,.539.539l1.056-1.061.789.789-.631.632a.381.381,0,0,0,.539.539l.631-.632.833.833-1.062,1.062a.381.381,0,0,0,.539.539l1.056-1.062.789.789-.631.632a.381.381,0,0,0,.539.539l.631-.632.833.833-1.062,1.061a.381.381,0,1,0,.539.539l1.056-1.061.789.789-.631.631a.38.38,0,0,0,.016.539.374.374,0,0,0,.522,0l.631-.631.577.577-4.811,4.843-.577-.577.632-.632a.381.381,0,1,0-.539-.539l-.632.632L119.4,53.068l1.062-1.061a.381.381,0,1,0-.534-.544l-.005.005-1.056,1.061-1.987-1.992.631-.631a.381.381,0,1,0-.539-.539l-.631.631-1.943-1.954,1.061-1.061a.381.381,0,1,0-.539-.539l-1.056,1.061-1.942-1.954.631-.631a.381.381,0,0,0-.534-.544l-.636.636-1.943-1.954L110.5,42a.381.381,0,0,0-.539-.539L108.9,42.521l-1.987-1.992.632-.631a.384.384,0,0,0-.006-.539.377.377,0,0,0-.533,0l-.632.631-1.943-1.954,1.062-1.062a.381.381,0,0,0-.534-.544l-.005.005L103.9,37.5l-.577-.577,4.811-4.827Z" transform="translate(870.705 280.384)" fill="#ffda38"/></g></svg>