<svg id="instagram-icon" xmlns="http://www.w3.org/2000/svg" width="28.443" height="28.444" viewBox="0 0 28.443 28.444">
  <g id="Raggruppa_3" data-name="Raggruppa 3">
    <g id="Raggruppa_2" data-name="Raggruppa 2">
      <path id="Tracciato_5" data-name="Tracciato 5" d="M19.557,0H8.889A8.89,8.89,0,0,0,0,8.888V19.557a8.89,8.89,0,0,0,8.889,8.887H19.557a8.89,8.89,0,0,0,8.886-8.887V8.889A8.89,8.89,0,0,0,19.557,0Zm6.222,19.557a6.229,6.229,0,0,1-6.222,6.22H8.889a6.229,6.229,0,0,1-6.223-6.22V8.889A6.229,6.229,0,0,1,8.888,2.667H19.557a6.229,6.229,0,0,1,6.222,6.222Z" fill="#fff"/>
    </g>
  </g>
  <g id="Raggruppa_5" data-name="Raggruppa 5" transform="translate(7.111 7.111)">
    <g id="Raggruppa_4" data-name="Raggruppa 4">
      <path id="Tracciato_6" data-name="Tracciato 6" d="M135.111,128a7.111,7.111,0,1,0,7.111,7.111A7.111,7.111,0,0,0,135.111,128Zm0,11.555a4.444,4.444,0,1,1,4.444-4.444A4.444,4.444,0,0,1,135.111,139.555Z" transform="translate(-128 -128)" fill="#fff"/>
    </g>
  </g>
  <g id="Raggruppa_7" data-name="Raggruppa 7" transform="translate(20.918 5.63)">
    <g id="Raggruppa_6" data-name="Raggruppa 6" transform="translate(0 0)">
      <ellipse id="Ellisse_8" data-name="Ellisse 8" cx="0.947" cy="0.947" rx="0.947" ry="0.947" fill="#fff"/>
    </g>
  </g>
</svg>
