<svg xmlns="http://www.w3.org/2000/svg" width="36" height="36" viewBox="0 0 36 36"><g transform="translate(-968 -218)"><circle cx="18" cy="18" r="18" transform="translate(968 218)" fill="#2a2a2a"/><path d="M93.166,33.469a.564.564,0,0,0-.575.555v4.017a.564.564,0,0,0,.575.555h3.975a.565.565,0,0,0,.576-.555V34.024a.565.565,0,0,0-.576-.555Zm7.192,0a.564.564,0,0,0-.575.555v4.014a.564.564,0,0,0,.575.555h13.194a.564.564,0,0,0,.575-.555V34.026a.564.564,0,0,0-.575-.555Zm-7.192,7.671a.564.564,0,0,0-.575.555v4.017a.564.564,0,0,0,.575.555h3.975a.565.565,0,0,0,.576-.555V41.7a.565.565,0,0,0-.576-.555Zm7.192,0a.564.564,0,0,0-.575.555v4.014a.564.564,0,0,0,.575.555h13.194a.564.564,0,0,0,.575-.555V41.7a.564.564,0,0,0-.575-.555Zm-7.192,7.671a.564.564,0,0,0-.575.555v4.017a.564.564,0,0,0,.575.555h3.975a.565.565,0,0,0,.576-.555V49.371a.565.565,0,0,0-.576-.555Zm7.192,0a.564.564,0,0,0-.575.555v4.014a.564.564,0,0,0,.575.555h13.194a.564.564,0,0,0,.575-.555V49.373a.564.564,0,0,0-.575-.555Z" transform="translate(882.641 192.794)" fill="#ffda38"/></g></svg>