<svg xmlns="http://www.w3.org/2000/svg" width="28.48" height="28.575" viewBox="0 0 28.48 28.575">
  <g id="linkedin" transform="translate(0)">
    <g id="Raggruppa_15" data-name="Raggruppa 15" transform="translate(0.035 9.019)">
      <g id="Raggruppa_14" data-name="Raggruppa 14">
        <rect id="Rettangolo_3" data-name="Rettangolo 3" width="6.361" height="19.555" fill="#fff"/>
      </g>
    </g>
    <g id="Raggruppa_17" data-name="Raggruppa 17" transform="translate(8.923 9.019)">
      <g id="Raggruppa_16" data-name="Raggruppa 16">
        <path id="Tracciato_8" data-name="Tracciato 8" d="M174.8,160.229c-.067-.021-.132-.045-.2-.064s-.169-.035-.258-.05A5.7,5.7,0,0,0,173.2,160a8.84,8.84,0,0,0-6.836,3.739V160H160v19.557h6.361V168.889s4.8-6.695,6.835-1.778v12.445h6.36v-13.2A6.342,6.342,0,0,0,174.8,160.229Z" transform="translate(-160 -160)" fill="#fff"/>
      </g>
    </g>
    <g id="Raggruppa_19" data-name="Raggruppa 19" transform="translate(0 0)">
      <g id="Raggruppa_18" data-name="Raggruppa 18">
        <ellipse id="Ellisse_10" data-name="Ellisse 10" cx="2.95" cy="2.95" rx="2.95" ry="2.95" fill="#fff"/>
      </g>
    </g>
  </g>
</svg>
