<svg xmlns="http://www.w3.org/2000/svg" width="36" height="36" viewBox="0 0 36 36">
  <g id="Group_107" data-name="Group 107" transform="translate(-968 -218)">
    <circle id="Ellipse_9" data-name="Ellipse 9" cx="18" cy="18" r="18" transform="translate(968 218)" fill="#2a2a2a"/>
    <path id="Path_110" data-name="Path 110" d="M86.535,24.227a.739.739,0,0,0-.744.726V28.4a.739.739,0,0,0,.744.726H89.95a.739.739,0,0,0,.744-.726v-3.45a.739.739,0,0,0-.744-.726Zm6.178,0a.739.739,0,0,0-.744.726V28.4a.739.739,0,0,0,.744.726h11.333a.739.739,0,0,0,.744-.726V24.955a.739.739,0,0,0-.744-.726Zm-6.178.5H89.95a.231.231,0,0,1,.245.227V28.4a.231.231,0,0,1-.245.227H86.535a.231.231,0,0,1-.245-.227v-3.45A.231.231,0,0,1,86.535,24.726Zm6.178,0h11.333a.231.231,0,0,1,.245.227V28.4a.231.231,0,0,1-.245.227H92.713a.231.231,0,0,1-.245-.227V24.955A.231.231,0,0,1,92.713,24.728Zm-6.178,6.09a.739.739,0,0,0-.744.726v3.45a.739.739,0,0,0,.744.726H89.95a.739.739,0,0,0,.744-.726v-3.45a.739.739,0,0,0-.744-.726Zm6.178,0a.739.739,0,0,0-.744.726v3.448a.739.739,0,0,0,.744.726h11.333a.739.739,0,0,0,.744-.726V31.547a.739.739,0,0,0-.744-.726Zm-6.178.5H89.95a.231.231,0,0,1,.245.227v3.45a.231.231,0,0,1-.245.227H86.535a.231.231,0,0,1-.245-.227v-3.45A.231.231,0,0,1,86.535,31.317Zm6.178,0h11.333a.231.231,0,0,1,.245.227v3.448a.231.231,0,0,1-.245.227H92.713a.231.231,0,0,1-.245-.227V31.547A.231.231,0,0,1,92.713,31.319Zm-6.178,6.09a.739.739,0,0,0-.744.726v3.45a.739.739,0,0,0,.744.726H89.95a.739.739,0,0,0,.744-.726v-3.45a.739.739,0,0,0-.744-.726Zm6.178,0a.739.739,0,0,0-.744.726v3.448a.739.739,0,0,0,.744.726h11.333a.739.739,0,0,0,.744-.726V38.138a.739.739,0,0,0-.744-.726Zm-6.178.5H89.95a.231.231,0,0,1,.245.227v3.45a.231.231,0,0,1-.245.227H86.535a.231.231,0,0,1-.245-.227v-3.45A.231.231,0,0,1,86.535,37.909Zm6.178,0h11.333a.231.231,0,0,1,.245.227v3.448a.231.231,0,0,1-.245.227H92.713a.231.231,0,0,1-.245-.227V38.138A.231.231,0,0,1,92.713,37.911Z" transform="translate(890.71 202.73)" fill="#ffda38"/>
  </g>
</svg>
