<svg xmlns="http://www.w3.org/2000/svg" width="1085" height="804" viewBox="0 0 1085 804">
  <g id="Raggruppa_14" data-name="Raggruppa 14" transform="translate(746 16226)">
    <g id="Raggruppa_12" data-name="Raggruppa 12" transform="translate(-460 -16226)">
      <path id="Tracciato_315" data-name="Tracciato 315" d="M323.432,125.538,103.142,0,12.694,53.31,133.312,122.2,0,198.077l103.022,58.744Z" transform="translate(154.52)" fill="#ffe223" fill-rule="evenodd"/>
      <path id="Tracciato_316" data-name="Tracciato 316" d="M323.478,136.77l-.092,259.4L236.1,446.36l-.5-140.811L101.884,382.9,0,325.072V209.31l103.022,58.744Z" transform="translate(154.474 -11.232)" fill="#fbbf15" fill-rule="evenodd"/>
      <path id="Tracciato_317" data-name="Tracciato 317" d="M463.762,127.154,359.877,67.74,241.82,133.074l107.235,59.662Z" transform="translate(-207.772 -5.563)" fill="#fcfcfc" fill-rule="evenodd"/>
      <path id="Tracciato_318" data-name="Tracciato 318" d="M218.235,198.591v135.6l115.221,66.335,119.517-71.016L452.5,455.486,333.7,523.409,112.239,396.5,111,138.92Z" transform="translate(-76.906 -11.408)" fill="#e6e6e6" fill-rule="evenodd"/>
      <path id="Tracciato_316-2" data-name="Tracciato 316" d="M331.3,320.65,197.9,398.926,95.75,340.182" transform="translate(58.77 -26.334)" fill="#fbbf15" fill-rule="evenodd"/>
    </g>
    <text id="CG_PROSPECT" data-name="CG PROSPECT" transform="translate(-746 -15547)" fill="#e6e6e6" font-size="154" font-family="Tahoma-Bold, Tahoma" font-weight="700"><tspan x="0" y="0">CG PROSPECT</tspan></text>
    <text id="FREE_TEXTURES_AND_3D_MODELS" data-name="FREE TEXTURES AND 3D MODELS" transform="translate(-704 -15436)" fill="#e6e6e6" font-size="66" font-family="Tahoma"><tspan x="0" y="0">FREE TEXTURES AND 3D MODELS</tspan></text>
  </g>
</svg>
